PathFileType	4	(X/Y/Z)	c:/Users/goper/Files/vsCode/490R/osim_files/A02/A02_PWS_05.trc
DataRate	CameraRate	NumFrames	NumMarkers	Units                	OrigDataRate	OrigDataStartFrame	OrigNumFrames
250.00	250.00	8	36	mm	250.0	1306	2610
                Frame#	Time	Mobility_markerset:LPSIS			Mobility_markerset:LASIS			Mobility_markerset:LTH1			Mobility_markerset:LTH2			Mobility_markerset:LTH3			Mobility_markerset:LTH4			Mobility_markerset:LLFE			Mobility_markerset:LMFE			Mobility_markerset:LSH1			Mobility_markerset:LSH2			Mobility_markerset:LSH3			Mobility_markerset:LSH4			Mobility_markerset:LLMAL			Mobility_markerset:LMMAL			Mobility_markerset:LCAL			Mobility_markerset:LMTP5			Mobility_markerset:LTOE			Mobility_markerset:LMTP1			Mobility_markerset:RPSIS			Mobility_markerset:RASIS			Mobility_markerset:RTH1			Mobility_markerset:RTH2			Mobility_markerset:RTH3			Mobility_markerset:RTH4			Mobility_markerset:RLFE			Mobility_markerset:RMFE			Mobility_markerset:RSH1			Mobility_markerset:RSH2			Mobility_markerset:RSH3			Mobility_markerset:RSH4			Mobility_markerset:RLMAL			Mobility_markerset:RMMAL			Mobility_markerset:RCAL			Mobility_markerset:RMTP1			Mobility_markerset:RTOE			Mobility_markerset:RMTP5		
		X1	Y1	Z1	X2	Y2	Z2	X3	Y3	Z3	X4	Y4	Z4	X5	Y5	Z5	X6	Y6	Z6	X7	Y7	Z7	X8	Y8	Z8	X9	Y9	Z9	X10	Y10	Z10	X11	Y11	Z11	X12	Y12	Z12	X13	Y13	Z13	X14	Y14	Z14	X15	Y15	Z15	X16	Y16	Z16	X17	Y17	Z17	X18	Y18	Z18	X19	Y19	Z19	X20	Y20	Z20	X21	Y21	Z21	X22	Y22	Z22	X23	Y23	Z23	X24	Y24	Z24	X25	Y25	Z25	X26	Y26	Z26	X27	Y27	Z27	X28	Y28	Z28	X29	Y29	Z29	X30	Y30	Z30	X31	Y31	Z31	X32	Y32	Z32	X33	Y33	Z33	X34	Y34	Z34	X35	Y35	Z35	X36	Y36	Z36

1306	5.22000	469.84811	883.08313	315.36444	313.14746	863.79584	383.43903	300.63565	613.13190	410.26154	267.54364	579.74066	403.49371	253.39439	650.15118	423.68011	229.87549	613.53271	414.47418	131.77579	466.37320	364.72345	111.29808	457.64252	248.28705	184.97536	378.36423	362.24390	182.24307	334.24750	367.95966	124.70244	379.96259	367.63522	128.40244	335.30997	371.81073	139.76105	94.37507	327.61642	132.07010	98.08916	243.85443	207.19958	72.57566	282.34329	45.20774	45.49897	343.90042	-2.77084	66.23004	278.71130	31.53132	36.57134	233.42461	466.99905	903.52771	213.75748	309.20718	886.25470	139.09573	408.17557	591.21399	100.44936	418.46970	548.89429	99.99619	349.07700	569.48120	100.31137	369.25479	531.38617	97.19815	446.80594	438.91946	89.37366	421.80954	428.82230	220.64894	590.99896	325.30319	122.04192	620.63770	291.75681	135.26003	552.50433	281.40018	115.02640	587.48914	252.25410	126.73377	741.96228	183.47096	143.27550	725.45013	178.48198	226.63460	789.41125	207.64772	191.41354	665.99536	64.50950	218.87460	645.44525	56.49089	182.01419	679.38263	67.67126	127.37103
1307	5.22400	464.12762	883.84290	314.72452	307.74734	864.83533	383.81952	296.01474	613.63538	410.28220	263.01056	579.91724	403.54617	248.60675	650.29474	424.03677	225.37215	613.64130	414.93185	127.98950	465.62830	365.44208	106.70876	457.39868	248.86862	181.76807	378.33353	362.29584	179.47269	334.17245	367.96548	121.64127	379.47314	368.18890	125.70077	334.75751	372.16382	139.24220	94.43216	327.41458	131.45451	98.06171	243.64052	206.90816	72.96547	282.11249	44.96157	45.24282	344.06128	-3.15909	65.35825	278.67780	31.08064	35.95889	233.41113	460.76804	904.28290	213.11646	301.74841	887.19012	139.42876	401.25562	590.60931	100.57876	410.94821	548.24084	99.83072	341.66714	569.32196	100.41412	361.57816	531.15350	96.89965	438.17798	437.95435	88.90063	412.67407	427.35300	219.75621	583.93134	326.38071	121.63219	614.04327	293.24063	134.93439	546.00647	281.86414	114.71444	581.41589	253.29762	126.40313	736.47534	187.14041	143.31303	720.22455	181.61440	226.57852	783.28308	212.37242	191.30069	663.72443	66.27006	218.72528	642.95172	57.71273	181.87593	676.67847	69.63373	127.27717
1308	5.22800	458.38947	884.74792	314.14569	302.69601	865.81262	383.94839	291.29529	613.92609	410.16818	258.64117	580.10059	403.55991	243.83694	650.20569	424.37625	220.68907	613.44415	415.20129	124.39004	464.88687	366.13214	102.31709	457.04596	249.38617	178.82213	378.46738	362.43729	176.97748	334.24042	368.03308	118.65781	378.99390	368.74731	123.19676	334.19946	372.53452	138.80762	94.57386	327.18475	130.88203	98.08504	243.52882	206.66669	73.34885	281.89151	45.00789	45.19851	344.31396	-3.42278	64.67398	278.67786	30.82575	35.45773	233.24062	454.63834	905.17291	212.48618	295.14493	888.22778	139.72623	394.09537	589.82147	100.68261	403.45966	547.44708	99.68173	334.24442	569.20721	100.51098	353.80817	530.88666	96.88546	429.59418	437.01648	88.42356	404.13855	426.13968	219.24780	576.80365	327.44208	121.27728	607.38782	294.79388	134.59944	539.46393	282.39719	114.41057	575.53503	254.36371	126.07217	730.90686	190.58945	143.18604	714.86755	184.63107	226.51083	777.11749	216.74620	191.12402	660.86884	68.15530	218.48103	640.11957	59.22639	181.70267	673.67700	71.84228	127.08385
1309	5.23200	452.67551	885.73596	313.60809	297.38074	866.93683	384.39520	286.82376	614.20544	410.08673	254.27129	580.12537	403.44626	238.80197	650.09790	424.66080	216.18501	613.29169	415.42212	121.09696	464.30328	366.97275	98.24546	456.72055	249.75648	176.01901	378.59811	362.56528	174.55179	334.28592	368.07578	115.94384	378.59140	369.38074	120.83392	333.76727	372.94894	138.41385	94.71612	326.94577	130.31131	98.15522	243.40852	206.42026	73.71964	281.72296	44.81104	45.07053	344.39514	-3.66500	64.08753	278.67300	30.76405	35.18155	233.08005	448.48508	906.11920	211.94627	288.64438	889.44672	140.04541	387.02652	589.16528	100.84367	395.82327	545.94586	100.30128	0.00000	0.00000	0.00000	346.10205	530.57782	96.82420	421.11368	436.09433	87.93848	396.16977	425.21390	219.13838	569.37360	328.10559	121.21039	600.76001	296.30731	134.26988	533.06201	282.95630	114.05616	570.00500	255.54253	125.64455	725.53687	193.89937	143.01880	709.49304	187.51456	226.34898	771.48193	220.44147	190.95074	656.95825	70.37856	218.07762	636.21204	61.26992	181.29530	669.77545	74.33582	126.78118
1310	5.23600	446.94662	886.69128	313.13358	291.82413	867.90778	385.05295	282.35361	614.45831	409.87692	250.03101	580.19263	403.22424	234.11014	650.06738	424.87598	211.75046	612.97809	415.63153	0.00000	0.00000	0.00000	94.32897	456.34317	250.15201	173.11374	378.72424	362.61298	172.22533	334.44141	368.11356	113.09175	378.11618	369.74667	118.55530	333.41745	373.38443	137.96487	94.88120	326.74545	129.81514	98.26283	243.26515	206.04401	74.06634	281.56143	44.64119	44.89991	344.46024	-3.92422	63.55552	278.70206	30.59368	34.79301	232.90140	442.42834	907.11896	211.38356	282.12067	890.75281	140.44159	380.01825	588.70465	101.01672	388.33752	545.36731	100.39473	0.00000	0.00000	0.00000	338.39041	530.38062	96.86677	412.83307	435.45718	87.64558	387.89227	424.33389	218.91220	562.34766	329.18588	120.93079	593.97968	297.77841	133.99646	526.43976	283.58319	113.75262	563.74084	256.53189	125.33246	720.50024	196.84259	142.86688	704.35449	190.26816	225.98918	765.96924	223.18983	190.85345	652.11346	72.87273	217.54716	631.50800	63.75042	180.84073	665.18195	76.83674	126.41151
1311	5.24000	441.32181	887.84241	312.68301	286.51721	869.08893	385.43564	278.03027	614.78601	409.69025	246.11743	580.31219	402.99771	229.26227	649.75641	425.10928	207.39569	612.65649	415.79639	114.47556	462.66861	368.11282	90.40609	455.95294	250.70114	170.37341	378.93427	362.74506	170.19447	334.77148	368.38364	110.42860	377.78729	370.16101	116.38459	333.14618	373.75354	137.43967	94.99177	326.55338	129.24185	98.40777	243.16833	205.78343	74.42606	281.41116	44.45880	44.73928	344.56235	-4.24907	62.82037	278.78445	30.45326	34.36437	232.75777	436.36139	908.17102	210.87685	275.73535	892.10352	140.81436	373.03397	588.46918	101.17728	380.93204	545.04388	100.39690	0.00000	0.00000	0.00000	331.04025	530.47052	96.86573	404.56665	435.01828	87.35117	379.68057	423.59341	218.43686	555.06799	330.21524	120.71323	587.14331	299.15137	133.67101	519.78394	284.28143	113.39775	557.19092	257.59802	124.99046	715.48059	198.54007	143.62755	698.97449	192.63986	225.47995	760.70459	225.90704	190.45822	646.78174	75.03172	217.03598	626.31213	65.96140	180.29935	660.01611	79.12691	125.90393
1312	5.24400	435.69318	889.00403	312.35904	281.26321	870.16199	385.78549	273.85944	615.11469	409.41614	242.16444	580.40924	402.77405	224.50418	649.52222	425.34030	203.12512	612.24384	415.83212	111.37053	462.05621	368.67468	87.26287	456.56964	250.38364	169.03496	379.77594	363.68274	168.01649	335.10785	368.40091	108.06948	377.70300	370.74982	114.33070	332.94971	374.10641	136.99150	95.09797	326.44867	128.76083	98.51680	243.06487	205.49348	74.78906	281.20572	44.28756	44.51738	344.64288	-4.51354	62.26979	278.73047	30.31303	34.04010	232.61559	430.43411	909.39899	210.45403	269.40155	893.51672	141.15889	365.64911	588.29187	101.55092	373.53812	545.00757	100.50621	0.00000	0.00000	0.00000	323.53333	530.83319	97.02070	396.48587	434.90002	87.10721	371.91330	423.34271	218.29648	548.13739	331.40463	120.49176	580.09058	300.39166	133.34454	511.88162	284.83072	113.28438	550.36047	258.60947	124.76820	709.41052	200.47557	143.24925	693.00531	194.62520	224.93484	754.29089	228.31012	190.05099	641.43488	76.67533	216.45335	621.13306	67.42836	179.75639	654.53467	80.82389	125.31870
1313	5.24800	430.14502	890.24274	312.01031	276.01453	871.30463	386.18674	269.72461	615.41455	409.17682	238.32556	580.48462	402.55087	221.14368	649.22858	425.74033	199.22319	611.86975	416.12030	108.52753	461.52271	369.33505	81.47971	449.15765	256.14597	166.81775	380.41910	363.84540	165.87823	335.51010	368.52298	105.67050	377.57608	371.21191	112.36459	332.91620	374.50330	136.54810	95.17824	326.37503	128.24030	98.63244	243.00639	205.25415	75.10677	281.09521	44.14072	44.36635	344.69034	-4.77534	61.72472	278.73389	30.10539	33.67135	232.59908	424.58044	910.61481	210.05814	263.09991	894.98755	141.54260	358.56235	588.47919	101.77839	366.25266	545.19135	100.62914	0.00000	0.00000	0.00000	316.14026	531.26709	97.15663	388.55231	435.00699	87.00226	363.96951	423.17981	218.22739	541.04230	332.27765	120.03491	572.83459	301.43079	133.00732	504.92328	285.67346	112.99024	543.43390	259.54538	124.33144	702.59692	202.34392	142.69872	686.26727	196.26111	224.47203	747.07550	230.67334	189.55104	635.79321	77.51374	215.52290	615.66675	68.40271	179.35207	649.11969	82.24537	124.90362
